<svg width="125" height="80" viewBox="0 0 125 80" fill="none" xmlns="http://www.w3.org/2000/svg">
<rect width="125" height="80" rx="15" fill="white"/>
<path fill-rule="evenodd" clip-rule="evenodd" d="M33.8905 49.4084C31.5754 51.2496 28.5724 52.3612 25.291 52.3612C17.9689 52.3612 12.0332 46.8269 12.0332 40C12.0332 33.1732 17.9689 27.6389 25.291 27.6389C28.5724 27.6389 31.5754 28.7504 33.8905 30.5917C36.2055 28.7504 39.2085 27.6389 42.4899 27.6389C49.812 27.6389 55.7477 33.1732 55.7477 40C55.7477 46.8269 49.812 52.3612 42.4899 52.3612C39.2085 52.3612 36.2055 51.2496 33.8905 49.4084Z" fill="#ED0006"/>
<path fill-rule="evenodd" clip-rule="evenodd" d="M33.8906 49.4084C36.7413 47.1411 38.549 43.7674 38.549 40C38.549 36.2327 36.7413 32.8589 33.8906 30.5917C36.2057 28.7504 39.2087 27.6389 42.4901 27.6389C49.8122 27.6389 55.7479 33.1732 55.7479 40C55.7479 46.8269 49.8122 52.3612 42.4901 52.3612C39.2087 52.3612 36.2057 51.2496 33.8906 49.4084Z" fill="#F9A000"/>
<path fill-rule="evenodd" clip-rule="evenodd" d="M33.8908 49.4085C36.7415 47.1413 38.5491 43.7675 38.5491 40.0002C38.5491 36.2328 36.7415 32.8591 33.8908 30.5918C31.04 32.8591 29.2324 36.2328 29.2324 40.0002C29.2324 43.7675 31.04 47.1413 33.8908 49.4085Z" fill="#FF5E00"/>
<path fill-rule="evenodd" clip-rule="evenodd" d="M77.5535 46.8919H73.4669L70.4025 36.0298C70.257 35.5301 69.9482 35.0884 69.4939 34.8802C68.3602 34.357 67.1109 33.9406 65.748 33.7306V33.3124H72.3312C73.2398 33.3124 73.9212 33.9406 74.0348 34.6702L75.6248 42.5054L79.7094 33.3124H83.6824L77.5535 46.8919ZM85.9543 46.8919H82.0948L85.2729 33.3124H89.1323L85.9543 46.8919ZM94.1254 37.0744C94.239 36.343 94.9204 35.9248 95.7154 35.9248C96.9647 35.8198 98.3256 36.0298 99.4613 36.5512L100.143 33.6275C99.007 33.2093 97.7577 32.9993 96.624 32.9993C92.8781 32.9993 90.1524 34.8802 90.1524 37.4908C90.1524 39.4767 92.0831 40.5195 93.446 41.1477C94.9204 41.774 95.4883 42.1922 95.3747 42.8186C95.3747 43.7582 94.239 44.1764 93.1052 44.1764C91.7424 44.1764 90.3795 43.8632 89.1322 43.34L88.4508 46.2655C89.8137 46.7869 91.2881 46.9969 92.651 46.9969C96.8511 47.1001 99.4613 45.221 99.4613 42.4004C99.4613 38.8485 94.1254 38.6403 94.1254 37.0744V37.0744ZM112.968 46.8919L109.903 33.3124H106.611C105.93 33.3124 105.249 33.7306 105.021 34.357L99.3469 46.8919H103.32L104.113 44.9077H108.995L109.449 46.8919H112.968ZM107.18 36.9694L108.313 42.0872H105.135L107.18 36.9694Z" fill="#172B85"/>
</svg>
