<svg width="200" height="200" viewBox="0 0 200 200" fill="none" xmlns="http://www.w3.org/2000/svg">
<rect width="200" height="200" fill="white"/>
<path d="M22.2881 109.6C20.6123 109.702 18.7842 109.676 16.8037 109.524C14.874 109.371 13.9092 108.127 13.9092 105.791V83.3969H16.6514C17.3115 83.3969 17.8955 83.6508 18.4033 84.1586C18.9111 84.6664 19.165 85.2758 19.165 85.9867V89.4144H22.2881V90.4809C22.2881 91.2426 22.0342 91.8773 21.5264 92.3851C21.0186 92.8422 20.4092 93.0707 19.6982 93.0707H19.165V104.344C19.165 105.207 19.6729 105.639 20.6885 105.639H22.2881V109.6ZM25.2588 107.772C24.1924 106.858 23.4307 105.639 22.9736 104.116C22.5166 102.541 22.2881 100.916 22.2881 99.2406C22.2881 97.8695 22.4658 96.4984 22.8213 95.1273C23.2275 93.7562 23.8369 92.6137 24.6494 91.6996C25.9697 90.1762 27.6709 89.2875 29.7529 89.0336C31.835 88.7289 33.7139 88.8812 35.3896 89.4906C37.3193 90.2523 38.7412 91.5726 39.6553 93.4516C40.5186 95.1273 40.9502 97.0824 40.9502 99.3168C40.9502 100.942 40.7725 102.338 40.417 103.506C40.0615 104.674 39.6045 105.664 39.0459 106.477C37.8271 108.153 36.2783 109.194 34.3994 109.6C32.7236 110.057 31.0225 110.082 29.2959 109.676C27.6201 109.321 26.2744 108.686 25.2588 107.772ZM28.915 94.3656C27.8486 95.5336 27.3662 97.2855 27.4678 99.6215C27.5693 101.907 28.001 103.506 28.7627 104.42C29.0674 104.827 29.6006 105.182 30.3623 105.487C31.124 105.741 31.8857 105.766 32.6475 105.563C33.46 105.309 34.1709 104.725 34.7803 103.811C35.3896 102.897 35.7197 101.424 35.7705 99.393C35.7705 97.5648 35.4658 96.1937 34.8564 95.2797C34.2979 94.3656 33.6377 93.7816 32.876 93.5277C32.1143 93.2738 31.3525 93.2738 30.5908 93.5277C29.8291 93.7309 29.2705 94.0101 28.915 94.3656ZM50.7764 109.6C49.1006 109.702 47.2725 109.676 45.292 109.524C43.3623 109.371 42.3975 108.127 42.3975 105.791V83.3969H45.1396C45.7998 83.3969 46.3838 83.6508 46.8916 84.1586C47.3994 84.6664 47.6533 85.2758 47.6533 85.9867V89.4144H50.7764V90.4809C50.7764 91.2426 50.5225 91.8773 50.0146 92.3851C49.5068 92.8422 48.8975 93.0707 48.1865 93.0707H47.6533V104.344C47.6533 105.207 48.1611 105.639 49.1768 105.639H50.7764V109.6ZM62.9639 99.393C62.2529 99.7484 61.2627 100.079 59.9932 100.383C58.8252 100.637 58.2412 100.764 58.2412 100.764C57.3271 101.018 56.667 101.348 56.2607 101.754C55.9053 102.313 55.7275 102.871 55.7275 103.43C55.7275 104.192 55.9561 104.801 56.4131 105.258C56.8701 105.664 57.5303 105.868 58.3936 105.868C59.8154 105.868 60.9326 105.461 61.7451 104.649C62.5576 103.836 62.9639 102.719 62.9639 101.297V99.393ZM64.1826 108.762C63.1162 109.321 61.9736 109.651 60.7549 109.752C59.5869 109.905 58.5459 109.981 57.6318 109.981C55.8037 109.981 54.2041 109.498 52.833 108.534C51.4619 107.518 50.7764 105.868 50.7764 103.582C50.7764 101.45 51.3857 99.9262 52.6045 99.0121C53.874 98.098 55.4736 97.4887 57.4033 97.184C57.6572 97.184 57.9619 97.1586 58.3174 97.1078C58.6729 97.0062 59.0791 96.9301 59.5361 96.8793C61.7705 96.5746 62.8877 95.9144 62.8877 94.8988C62.8877 94.1371 62.4814 93.6547 61.6689 93.4516C60.9072 93.1976 60.1963 93.0707 59.5361 93.0707C58.8252 93.0707 58.1904 93.1723 57.6318 93.3754C57.0732 93.5785 56.667 93.9594 56.4131 94.518H51.3096C51.5127 92.9437 52.2236 91.6488 53.4424 90.6332C54.8135 89.4652 56.7686 88.8812 59.3076 88.8812C62.1514 88.8812 64.2842 89.3637 65.7061 90.3285C67.1787 91.3441 67.915 92.766 67.915 94.5941V101.526C67.915 103.557 67.5342 105.157 66.7725 106.325C66.0615 107.442 65.1982 108.254 64.1826 108.762ZM68.9053 83.3969H71.6475C72.3584 83.3969 72.9678 83.6508 73.4756 84.1586C73.9834 84.6156 74.2373 85.1996 74.2373 85.9105V109.6H68.9053V83.3969ZM92.8232 109.6H87.5674V97.7172V96.6508C87.5674 95.432 87.1865 94.5434 86.4248 93.9848C85.7139 93.4262 84.9014 93.1469 83.9873 93.1469C83.0732 93.1469 82.2607 93.4262 81.5498 93.9848C80.8389 94.5434 80.4834 95.432 80.4834 96.6508V109.6H75.1514V97.7172C75.1514 94.2641 76.04 91.9535 77.8174 90.7855C79.6455 89.6176 81.6514 88.9828 83.835 88.8812C85.0029 88.8812 86.1455 89.0082 87.2627 89.2621C88.3799 89.516 89.3955 90.0238 90.3096 90.7855C91.0713 90.1254 91.96 89.6684 92.9756 89.4144C94.042 89.1098 95.1338 88.932 96.251 88.8812C98.4854 88.8812 100.542 89.4652 102.421 90.6332C104.3 91.8012 105.239 94.1625 105.239 97.7172V109.6H102.573C101.812 109.6 101.177 109.371 100.669 108.914C100.212 108.407 99.9834 107.772 99.9834 107.01V96.6508C99.9834 95.432 99.6025 94.5434 98.8408 93.9848C98.1299 93.4262 97.3174 93.1469 96.4033 93.1469C95.4893 93.1469 94.6514 93.4262 93.8896 93.9848C93.1787 94.5434 92.8232 95.432 92.8232 96.6508V97.7172V109.6ZM107.144 89.3383H109.886C110.597 89.3383 111.206 89.5922 111.714 90.1C112.222 90.6078 112.476 91.2172 112.476 91.9281V109.6H107.144V89.3383ZM107.144 83.3969H109.886C110.597 83.3969 111.206 83.6508 111.714 84.1586C112.222 84.6664 112.476 85.2758 112.476 85.9867V87.5863H107.144V83.3969ZM130.376 109.6H127.71C126.948 109.6 126.313 109.371 125.806 108.914C125.349 108.407 125.12 107.772 125.12 107.01V96.6508C125.12 95.432 124.739 94.5434 123.978 93.9848C123.267 93.4262 122.454 93.1469 121.54 93.1469C120.626 93.1469 119.813 93.4262 119.103 93.9848C118.392 94.5434 118.036 95.432 118.036 96.6508V109.6H112.704V97.7172C112.704 94.2641 113.593 91.9535 115.37 90.7855C117.198 89.6176 119.204 88.9828 121.388 88.8812C123.622 88.8812 125.679 89.4652 127.558 90.6332C129.437 91.8012 130.376 94.1625 130.376 97.7172V109.6ZM145.306 103.354H149.114C148.556 105.487 147.489 107.112 145.915 108.229C144.341 109.397 142.36 109.981 139.974 109.981C137.079 109.981 134.819 109.041 133.194 107.162C131.569 105.334 130.757 102.719 130.757 99.3168C130.757 96.0668 131.544 93.5277 133.118 91.6996C134.743 89.8207 137.003 88.8812 139.897 88.8812C142.944 88.8812 145.306 89.7953 146.981 91.6234C148.606 93.5023 149.419 96.1176 149.419 99.4691C149.419 99.6723 149.419 99.85 149.419 100.002C149.419 100.155 149.419 100.256 149.419 100.307C149.419 100.561 149.394 100.739 149.343 100.84H136.165C136.216 102.414 136.597 103.582 137.308 104.344C137.968 105.157 138.958 105.563 140.278 105.563C141.142 105.563 141.878 105.385 142.487 105.03C142.64 104.979 142.767 104.903 142.868 104.801C143.021 104.649 143.173 104.496 143.325 104.344C143.376 104.192 143.554 103.989 143.858 103.735C144.214 103.481 144.696 103.354 145.306 103.354ZM136.165 97.4125H143.935C143.833 96.0414 143.478 95.0258 142.868 94.3656C142.208 93.6547 141.269 93.2992 140.05 93.2992C138.933 93.2992 138.019 93.6547 137.308 94.3656C136.597 95.0766 136.216 96.0922 136.165 97.4125ZM150.257 109.6V99.7738C150.257 97.7934 150.536 96.143 151.095 94.8226C151.704 93.4516 152.517 92.3598 153.532 91.5473C154.497 90.7855 155.614 90.2269 156.884 89.8715C158.204 89.516 159.55 89.3383 160.921 89.3383C161.022 89.3383 161.149 89.3383 161.302 89.3383C161.454 89.3383 161.581 89.3383 161.683 89.3383V94.7465H159.931C158.458 94.7465 157.366 95.1019 156.655 95.8129C155.944 96.5238 155.589 97.641 155.589 99.1644V109.6H150.257ZM161.759 102.897H166.938C166.989 103.912 167.37 104.674 168.081 105.182C168.843 105.69 169.858 105.944 171.128 105.944C172.042 105.944 172.829 105.766 173.489 105.411C174.099 105.055 174.403 104.573 174.403 103.963C174.403 103.049 173.337 102.364 171.204 101.907C170.29 101.754 169.604 101.602 169.147 101.45C166.456 100.789 164.653 100.002 163.739 99.0883C162.724 98.1742 162.216 96.9555 162.216 95.432C162.216 93.5023 162.952 91.9027 164.425 90.6332C165.948 89.4652 167.929 88.8812 170.366 88.8812C173.007 88.8812 175.114 89.4652 176.688 90.6332C178.161 91.9027 178.948 93.5531 179.05 95.5844H175.774C174.81 95.5844 174.073 95.1527 173.565 94.2894C173.362 94.0863 173.159 93.8832 172.956 93.6801C172.347 93.223 171.509 92.9945 170.442 92.9945C169.427 92.9945 168.665 93.1469 168.157 93.4516C167.7 93.7562 167.472 94.2133 167.472 94.8226C167.472 95.6351 168.792 96.3207 171.433 96.8793C171.737 96.9809 171.991 97.057 172.194 97.1078C172.448 97.1586 172.677 97.184 172.88 97.184C175.47 97.8441 177.272 98.6059 178.288 99.4691C179.253 100.383 179.735 101.602 179.735 103.125C179.735 105.36 178.923 107.086 177.298 108.305C175.774 109.422 173.489 109.981 170.442 109.981C167.548 109.981 165.39 109.397 163.968 108.229C162.495 107.061 161.759 105.36 161.759 103.125V102.897Z" fill="#CF0032"/>
<path d="M178.283 115.454H179.146V116.85H177.75V115.987C177.75 115.631 177.928 115.454 178.283 115.454ZM179.61 110.096H180.524C180.761 110.096 180.964 110.181 181.133 110.35C181.302 110.519 181.387 110.722 181.387 110.959V116.85H179.61V110.096ZM179.61 108.116H180.524C180.761 108.116 180.964 108.2 181.133 108.37C181.302 108.539 181.387 108.742 181.387 108.979V109.512H179.61V108.116ZM182.561 116.241C182.206 115.936 181.952 115.53 181.799 115.022C181.647 114.497 181.571 113.955 181.571 113.397C181.571 112.94 181.63 112.483 181.749 112.026C181.884 111.569 182.087 111.188 182.358 110.883C182.798 110.375 183.365 110.079 184.059 109.995C184.753 109.893 185.379 109.944 185.938 110.147C186.581 110.401 187.055 110.841 187.36 111.467C187.648 112.026 187.791 112.677 187.791 113.422C187.791 113.964 187.732 114.429 187.614 114.819C187.495 115.208 187.343 115.538 187.157 115.809C186.75 116.368 186.234 116.715 185.608 116.85C185.049 117.002 184.482 117.011 183.907 116.875C183.348 116.757 182.9 116.545 182.561 116.241ZM183.78 111.772C183.424 112.161 183.263 112.745 183.297 113.524C183.331 114.286 183.475 114.819 183.729 115.123C183.831 115.259 184.008 115.377 184.262 115.479C184.516 115.564 184.77 115.572 185.024 115.504C185.295 115.42 185.532 115.225 185.735 114.92C185.938 114.616 186.048 114.125 186.065 113.448C186.065 112.838 185.963 112.381 185.76 112.077C185.574 111.772 185.354 111.577 185.1 111.493C184.846 111.408 184.592 111.408 184.338 111.493C184.084 111.56 183.898 111.653 183.78 111.772Z" fill="#CF0032"/>
</svg>
