<svg width="40" height="40" viewBox="0 0 40 40" fill="none" xmlns="http://www.w3.org/2000/svg">
<path d="M20 37.9167C18.8333 37.9167 17.65 37.4667 16.7667 36.5833L13.9167 33.7668C13.2 33.0668 12.2667 32.6834 11.2667 32.6834H10C6.55 32.6834 3.75 29.9001 3.75 26.4834V8.30005C3.75 4.88338 6.55 2.1001 10 2.1001H30C33.45 2.1001 36.25 4.88338 36.25 8.30005V26.4834C36.25 29.9001 33.45 32.6834 30 32.6834H28.7333C27.7333 32.6834 26.7833 33.0668 26.0833 33.7668L23.2333 36.5833C22.35 37.4667 21.1667 37.9167 20 37.9167ZM10 4.58341C7.93333 4.58341 6.25 6.25003 6.25 8.28337V26.4668C6.25 28.5168 7.93333 30.1667 10 30.1667H11.2667C12.9333 30.1667 14.5 30.8166 15.6833 31.9833L18.5333 34.8001C19.35 35.6001 20.6667 35.6001 21.4833 34.8001L24.3333 31.9833C25.5167 30.8166 27.0833 30.1667 28.75 30.1667H30C32.0667 30.1667 33.75 28.5001 33.75 26.4668V8.28337C33.75 6.23337 32.0667 4.58341 30 4.58341H10Z" fill="#0F0F0F"/>
<path d="M17.3004 24.1834H12.8337C12.1004 24.1834 11.417 23.8333 10.9837 23.2333C10.567 22.6667 10.467 21.9668 10.667 21.3001C11.2504 19.5168 12.6837 18.5501 13.9504 17.6834C15.2837 16.7834 16.0337 16.2168 16.0337 15.2501C16.0337 14.3835 15.3337 13.6833 14.467 13.6833C13.6004 13.6833 12.9004 14.3835 12.9004 15.2501C12.9004 15.9335 12.3337 16.5001 11.6504 16.5001C10.9671 16.5001 10.4004 15.9335 10.4004 15.2501C10.4004 13.0168 12.217 11.1833 14.467 11.1833C16.717 11.1833 18.5337 13.0001 18.5337 15.2501C18.5337 17.6001 16.7671 18.8001 15.3504 19.7667C14.4671 20.3667 13.6337 20.9334 13.217 21.6834H17.2837C17.967 21.6834 18.5337 22.2501 18.5337 22.9334C18.5337 23.6168 17.9837 24.1834 17.3004 24.1834Z" fill="#0F0F0F"/>
<path d="M26.733 24.1832C26.0496 24.1832 25.483 23.6165 25.483 22.9332V21.7831H22.2163C22.2163 21.7831 22.2163 21.7831 22.1996 21.7831C21.383 21.7831 20.633 21.3498 20.2163 20.6498C19.7996 19.9332 19.7996 19.0498 20.2163 18.3498C21.3496 16.3998 22.6663 14.1831 23.8663 12.2498C24.3996 11.3998 25.4163 11.0165 26.3663 11.2832C27.3163 11.5665 27.983 12.4332 27.9663 13.4332V19.2997H28.333C29.0163 19.2997 29.583 19.8664 29.583 20.5497C29.583 21.2331 29.0163 21.7997 28.333 21.7997H27.983V22.9498C27.983 23.6332 27.433 24.1832 26.733 24.1832ZM25.483 14.3998C24.4996 15.9998 23.483 17.7164 22.5663 19.2831H25.483V14.3998Z" fill="#0F0F0F"/>
</svg>
