<svg width="24" height="24" viewBox="0 0 24 24" fill="none" xmlns="http://www.w3.org/2000/svg">
<path d="M8.99998 8.38079V7.63079C8.58576 7.63079 8.24998 7.96658 8.24998 8.38079H8.99998ZM8.99998 12.1423H8.24998C8.24998 12.5565 8.58576 12.8923 8.99998 12.8923V12.1423ZM8.99998 12.1308V11.3808C8.58576 11.3808 8.24998 11.7166 8.24998 12.1308H8.99998ZM8.99998 15.8923H8.24998C8.24998 16.3065 8.58576 16.6423 8.99998 16.6423V15.8923ZM13.0269 15.8808C13.0269 15.4666 12.6911 15.1308 12.2769 15.1308C11.8627 15.1308 11.5269 15.4666 11.5269 15.8808H13.0269ZM11.5269 17.7616C11.5269 18.1758 11.8627 18.5116 12.2769 18.5116C12.6911 18.5116 13.0269 18.1758 13.0269 17.7616H11.5269ZM10.6846 15.8808C10.6846 15.4666 10.3488 15.1308 9.9346 15.1308C9.52039 15.1308 9.1846 15.4666 9.1846 15.8808H10.6846ZM9.1846 17.7616C9.1846 18.1758 9.52039 18.5116 9.9346 18.5116C10.3488 18.5116 10.6846 18.1758 10.6846 17.7616H9.1846ZM13.0269 6.5C13.0269 6.08579 12.6911 5.75 12.2769 5.75C11.8627 5.75 11.5269 6.08579 11.5269 6.5H13.0269ZM11.5269 8.38077C11.5269 8.79499 11.8627 9.13077 12.2769 9.13077C12.6911 9.13077 13.0269 8.79499 13.0269 8.38077H11.5269ZM10.6846 6.5C10.6846 6.08579 10.3488 5.75 9.9346 5.75C9.52039 5.75 9.1846 6.08579 9.1846 6.5H10.6846ZM9.1846 8.38077C9.1846 8.79499 9.52039 9.13077 9.9346 9.13077C10.3488 9.13077 10.6846 8.79499 10.6846 8.38077H9.1846ZM10.7769 9.13079C11.1911 9.13079 11.5269 8.795 11.5269 8.38079C11.5269 7.96658 11.1911 7.63079 10.7769 7.63079V9.13079ZM7.5 7.63079C7.08579 7.63079 6.75 7.96658 6.75 8.38079C6.75 8.795 7.08579 9.13079 7.5 9.13079V7.63079ZM10.7769 16.6308C11.1911 16.6308 11.5269 16.295 11.5269 15.8808C11.5269 15.4666 11.1911 15.1308 10.7769 15.1308V16.6308ZM7.5 15.1308C7.08579 15.1308 6.75 15.4666 6.75 15.8808C6.75 16.295 7.08579 16.6308 7.5 16.6308V15.1308ZM13.6846 9.13079C14.2855 9.13079 14.8154 9.70586 14.8154 10.2616H16.3154C16.3154 8.92496 15.1606 7.63079 13.6846 7.63079V9.13079ZM14.8154 10.2616C14.8154 10.8858 14.3088 11.3923 13.6846 11.3923V12.8923C15.1373 12.8923 16.3154 11.7142 16.3154 10.2616H14.8154ZM13.6846 11.3923H8.99998V12.8923H13.6846V11.3923ZM9.74998 12.1423V8.38079H8.24998V12.1423H9.74998ZM8.99998 12.8808H14.3538V11.3808H8.99998V12.8808ZM14.3538 12.8808C15.2233 12.8808 15.75 13.4765 15.75 14.0115H17.25C17.25 12.4697 15.8613 11.3808 14.3538 11.3808V12.8808ZM15.75 14.0115C15.75 14.5466 15.2233 15.1423 14.3538 15.1423V16.6423C15.8613 16.6423 17.25 15.5534 17.25 14.0115H15.75ZM14.3538 15.1423H8.99998V16.6423H14.3538V15.1423ZM9.74998 15.8923V12.1308H8.24998V15.8923H9.74998ZM11.5269 15.8808V17.7616H13.0269V15.8808H11.5269ZM9.1846 15.8808V17.7616H10.6846V15.8808H9.1846ZM11.5269 6.5V8.38077H13.0269V6.5H11.5269ZM9.1846 6.5V8.38077H10.6846V6.5H9.1846ZM10.7769 15.1308H7.5V16.6308H10.7769V15.1308ZM21.25 12C21.25 17.1086 17.1086 21.25 12 21.25V22.75C17.9371 22.75 22.75 17.9371 22.75 12H21.25ZM12 21.25C6.89137 21.25 2.75 17.1086 2.75 12H1.25C1.25 17.9371 6.06294 22.75 12 22.75V21.25ZM2.75 12C2.75 6.89137 6.89137 2.75 12 2.75V1.25C6.06294 1.25 1.25 6.06294 1.25 12H2.75ZM12 2.75C17.1086 2.75 21.25 6.89137 21.25 12H22.75C22.75 6.06294 17.9371 1.25 12 1.25V2.75ZM10.7769 7.63079H9.13846V9.13079H10.7769V7.63079ZM9.13846 7.63079H7.5V9.13079H9.13846V7.63079ZM8.99998 9.13079H11.3423V7.63079H8.99998V9.13079ZM11.3423 9.13079H13.6846V7.63079H11.3423V9.13079Z" fill="#CF0032"/>
</svg>
