<svg width="40" height="40" viewBox="0 0 40 40" fill="none" xmlns="http://www.w3.org/2000/svg">
<path d="M10.0002 10.4166V13.7499M20.0002 36.6666H15.0002C6.66683 36.6666 3.3335 33.3333 3.3335 24.9999V14.9999C3.3335 6.66658 6.66683 3.33325 15.0002 3.33325H25.0002C33.3335 3.33325 36.6668 6.66658 36.6668 14.9999V19.9999H3.3335M16.6668 10.4166V13.7499M10.0002 26.6666V29.9999M16.6668 26.6666V29.9999M23.3335 12.0833H30.0002M35.9333 33.8833C35 35.4999 33.25 36.5832 31.25 36.5832C28.2666 36.5832 26.4333 33.5832 26.4333 33.5832M26.5499 28.4832C27.4833 26.8499 29.2333 25.7666 31.25 25.7666C34.8666 25.7666 36.6666 28.7666 36.6666 28.7666M36.6666 25.4166V28.7499H33.3333M29.7666 33.5666H26.4333V36.6666" stroke="#0F0F0F" stroke-width="2.5" stroke-linecap="round" stroke-linejoin="round"/>
</svg>
