<svg width="182" height="40" viewBox="0 0 182 40" fill="none" xmlns="http://www.w3.org/2000/svg">
<path d="M23.856 15.7477C24.9287 15.7477 25.8823 15.997 26.7167 16.4956C27.5511 16.9764 28.1981 17.6976 28.6579 18.6593C29.1347 19.6031 29.3731 20.7428 29.3731 22.0783V30.7596H25.7972V22.5859C25.7972 21.4105 25.5162 20.5113 24.9543 19.888C24.3923 19.2469 23.6261 18.9264 22.6555 18.9264C21.6678 18.9264 20.8845 19.2469 20.3056 19.888C19.7436 20.5113 19.4627 21.4105 19.4627 22.5859V30.7596H15.8867V10.993H19.4627V17.8045C19.9224 17.1634 20.5354 16.6648 21.3017 16.3086C22.068 15.9347 22.9194 15.7477 23.856 15.7477Z" fill="#272727"/>
<path d="M45.9274 23.04C45.9274 23.5742 45.8933 24.0551 45.8251 24.4823H35.4805C35.5656 25.5509 35.9233 26.3878 36.5533 26.9933C37.1833 27.5987 37.9582 27.9015 38.8776 27.9015C40.2058 27.9015 41.151 27.3049 41.7128 26.1118H45.5698C45.1611 27.5364 44.3778 28.7117 43.2198 29.6377C42.0619 30.5459 40.64 31 38.9542 31C37.592 31 36.366 30.6883 35.2762 30.0651C34.2034 29.424 33.3605 28.5247 32.7475 27.3672C32.1514 26.2098 31.8535 24.8742 31.8535 23.3604C31.8535 21.829 32.1514 20.4845 32.7475 19.3271C33.3434 18.1695 34.1778 17.2792 35.2506 16.6559C36.3234 16.0326 37.5579 15.721 38.9542 15.721C40.2994 15.721 41.5 16.0237 42.5557 16.6292C43.6285 17.2346 44.4544 18.0983 45.0334 19.2202C45.6293 20.3243 45.9274 21.5975 45.9274 23.04ZM42.2237 21.9715C42.2067 21.0099 41.8746 20.2441 41.2276 19.6743C40.5805 19.0866 39.7886 18.7928 38.8521 18.7928C37.9667 18.7928 37.2174 19.0777 36.6043 19.6476C36.0084 20.1996 35.6422 20.9743 35.5061 21.9715H42.2237Z" fill="#272727"/>
<path d="M47.6191 23.3071C47.6191 21.8112 47.9001 20.4845 48.462 19.3271C49.041 18.1695 49.8158 17.2792 50.7864 16.6559C51.774 16.0326 52.8724 15.721 54.0814 15.721C55.1372 15.721 56.0567 15.9436 56.84 16.3888C57.6403 16.834 58.2788 17.3949 58.7556 18.0716V15.9614H62.3572V30.7596H58.7556V28.596C58.2959 29.2905 57.6573 29.8692 56.84 30.3322C56.0396 30.7774 55.1116 31 54.0558 31C52.8638 31 51.774 30.6794 50.7864 30.0383C49.8158 29.3973 49.041 28.498 48.462 27.3406C47.9001 26.1652 47.6191 24.8207 47.6191 23.3071ZM58.7556 23.3604C58.7556 22.4523 58.5853 21.6777 58.2448 21.0366C57.9043 20.3777 57.4445 19.8791 56.8655 19.5407C56.2866 19.1846 55.665 19.0065 55.0009 19.0065C54.3368 19.0065 53.7238 19.1757 53.1618 19.514C52.6 19.8524 52.1402 20.351 51.7825 21.0099C51.4419 21.6509 51.2717 22.4167 51.2717 23.3071C51.2717 24.1975 51.4419 24.981 51.7825 25.6577C52.1402 26.3166 52.6 26.8241 53.1618 27.1802C53.7408 27.5364 54.3538 27.7145 55.0009 27.7145C55.665 27.7145 56.2866 27.5453 56.8655 27.2069C57.4445 26.8508 57.9043 26.3522 58.2448 25.7111C58.5853 25.0522 58.7556 24.2686 58.7556 23.3604Z" fill="#272727"/>
<path d="M64.9297 23.3071C64.9297 21.8112 65.2107 20.4845 65.7726 19.3271C66.3515 18.1695 67.1349 17.2792 68.1225 16.6559C69.1102 16.0326 70.2085 15.721 71.4175 15.721C72.337 15.721 73.214 15.9347 74.0484 16.3621C74.8827 16.7716 75.5469 17.3237 76.0406 18.0182V10.993H79.6677V30.7596H76.0406V28.5692C75.5979 29.2994 74.9764 29.887 74.1761 30.3322C73.3757 30.7774 72.4477 31 71.392 31C70.1999 31 69.1102 30.6794 68.1225 30.0383C67.1349 29.3973 66.3515 28.498 65.7726 27.3406C65.2107 26.1652 64.9297 24.8207 64.9297 23.3071ZM76.0662 23.3604C76.0662 22.4523 75.896 21.6777 75.5554 21.0366C75.2148 20.3777 74.755 19.8791 74.1761 19.5407C73.5971 19.1846 72.9756 19.0065 72.3114 19.0065C71.6474 19.0065 71.0343 19.1757 70.4725 19.514C69.9105 19.8524 69.4507 20.351 69.0932 21.0099C68.7526 21.6509 68.5822 22.4167 68.5822 23.3071C68.5822 24.1975 68.7526 24.981 69.0932 25.6577C69.4507 26.3166 69.9105 26.8241 70.4725 27.1802C71.0514 27.5364 71.6645 27.7145 72.3114 27.7145C72.9756 27.7145 73.5971 27.5453 74.1761 27.2069C74.755 26.8508 75.2148 26.3522 75.5554 25.7111C75.896 25.0522 76.0662 24.2686 76.0662 23.3604Z" fill="#272727"/>
<path d="M89.6473 19.0332H87.1698V30.7596H83.5428V19.0332H81.9336V15.9614H83.5428V15.2135C83.5428 13.3971 84.0365 12.0615 85.0242 11.2067C86.0118 10.352 87.5018 9.95129 89.4941 10.0047V13.1567C88.6257 13.1389 88.0211 13.2902 87.6806 13.6108C87.34 13.9313 87.1698 14.5101 87.1698 15.347V15.9614H89.6473V19.0332Z" fill="#272727"/>
<path d="M95.5408 18.2586C96.0005 17.475 96.5965 16.8607 97.3288 16.4155C98.078 15.9703 98.9294 15.7477 99.883 15.7477V19.6743H98.9379C97.814 19.6743 96.9626 19.9503 96.3837 20.5024C95.8217 21.0544 95.5408 22.016 95.5408 23.3872V30.7596H91.9648V15.9614H95.5408V18.2586Z" fill="#272727"/>
<path d="M101.373 23.3071C101.373 21.8112 101.654 20.4845 102.216 19.3271C102.795 18.1695 103.57 17.2792 104.54 16.6559C105.528 16.0326 106.626 15.721 107.835 15.721C108.891 15.721 109.81 15.9436 110.594 16.3888C111.394 16.834 112.033 17.3949 112.51 18.0716V15.9614H116.111V30.7596H112.51V28.596C112.05 29.2905 111.411 29.8692 110.594 30.3322C109.794 30.7774 108.865 31 107.81 31C106.618 31 105.528 30.6794 104.54 30.0383C103.57 29.3973 102.795 28.498 102.216 27.3406C101.654 26.1652 101.373 24.8207 101.373 23.3071ZM112.51 23.3604C112.51 22.4523 112.339 21.6777 111.999 21.0366C111.658 20.3777 111.198 19.8791 110.619 19.5407C110.04 19.1846 109.419 19.0065 108.755 19.0065C108.091 19.0065 107.478 19.1757 106.916 19.514C106.354 19.8524 105.894 20.351 105.536 21.0099C105.196 21.6509 105.026 22.4167 105.026 23.3071C105.026 24.1975 105.196 24.981 105.536 25.6577C105.894 26.3166 106.354 26.8241 106.916 27.1802C107.495 27.5364 108.108 27.7145 108.755 27.7145C109.419 27.7145 110.04 27.5453 110.619 27.2069C111.198 26.8508 111.658 26.3522 111.999 25.7111C112.339 25.0522 112.51 24.2686 112.51 23.3604Z" fill="#272727"/>
<path d="M137.177 15.7477C138.914 15.7477 140.309 16.3086 141.365 17.4305C142.439 18.5346 142.975 20.0839 142.975 22.0783V30.7596H139.399V22.5859C139.399 21.4284 139.118 20.5469 138.556 19.9414C137.994 19.3181 137.228 19.0065 136.257 19.0065C135.286 19.0065 134.512 19.3181 133.933 19.9414C133.371 20.5469 133.09 21.4284 133.09 22.5859V30.7596H129.514V22.5859C129.514 21.4284 129.233 20.5469 128.671 19.9414C128.109 19.3181 127.343 19.0065 126.372 19.0065C125.385 19.0065 124.601 19.3181 124.022 19.9414C123.46 20.5469 123.179 21.4284 123.179 22.5859V30.7596H119.604V15.9614H123.179V17.7511C123.639 17.1278 124.227 16.6381 124.942 16.2819C125.674 15.9258 126.474 15.7477 127.343 15.7477C128.45 15.7477 129.437 15.997 130.306 16.4956C131.174 16.9764 131.847 17.6709 132.323 18.5791C132.784 17.7244 133.448 17.0388 134.316 16.5223C135.201 16.0059 136.155 15.7477 137.177 15.7477Z" fill="#272727"/>
<path d="M159.522 23.04C159.522 23.5742 159.489 24.0551 159.42 24.4823H149.076C149.161 25.5509 149.519 26.3878 150.149 26.9933C150.778 27.5987 151.554 27.9015 152.472 27.9015C153.802 27.9015 154.747 27.3049 155.309 26.1118H159.166C158.756 27.5364 157.974 28.7117 156.816 29.6377C155.657 30.5459 154.235 31 152.549 31C151.188 31 149.961 30.6883 148.871 30.0651C147.799 29.424 146.956 28.5247 146.343 27.3672C145.747 26.2098 145.449 24.8742 145.449 23.3604C145.449 21.829 145.747 20.4845 146.343 19.3271C146.939 18.1695 147.774 17.2792 148.846 16.6559C149.919 16.0326 151.154 15.721 152.549 15.721C153.895 15.721 155.096 16.0237 156.152 16.6292C157.224 17.2346 158.05 18.0983 158.628 19.2202C159.225 20.3243 159.522 21.5975 159.522 23.04ZM155.819 21.9715C155.802 21.0099 155.47 20.2441 154.822 19.6743C154.176 19.0866 153.384 18.7928 152.448 18.7928C151.562 18.7928 150.813 19.0777 150.199 19.6476C149.604 20.1996 149.238 20.9743 149.102 21.9715H155.819Z" fill="#272727"/>
<path d="M163.716 30.9466C163.069 30.9466 162.533 30.7418 162.107 30.3322C161.698 29.9048 161.494 29.3795 161.494 28.7562C161.494 28.133 161.698 27.6165 162.107 27.2069C162.533 26.7796 163.069 26.5659 163.716 26.5659C164.346 26.5659 164.865 26.7796 165.274 27.2069C165.683 27.6165 165.887 28.133 165.887 28.7562C165.887 29.3795 165.683 29.9048 165.274 30.3322C164.865 30.7418 164.346 30.9466 163.716 30.9466Z" fill="#435FFF"/>
</svg>
