<svg width="24" height="24" viewBox="0 0 24 24" fill="none" xmlns="http://www.w3.org/2000/svg">
<path d="M3.01037 11.22V15.71C3.01037 20.2 4.81037 22 9.30037 22H14.6904C19.1804 22 20.9804 20.2 20.9804 15.71V11.22M12.0004 12C13.8304 12 15.1804 10.51 15.0004 8.68L14.3404 2H9.67037L9.00037 8.68C8.82037 10.51 10.1704 12 12.0004 12ZM18.3104 12C20.3304 12 21.8104 10.36 21.6104 8.35L21.3304 5.6C20.9704 3 19.9704 2 17.3504 2H14.3004L15.0004 9.01C15.1704 10.66 16.6604 12 18.3104 12ZM5.64037 12C7.29037 12 8.78037 10.66 8.94037 9.01L9.64037 2H6.59037C3.97037 2 2.97037 3 2.61037 5.6L2.34037 8.35C2.14037 10.36 3.62037 12 5.64037 12ZM12.0004 17C10.3304 17 9.50037 17.83 9.50037 19.5V22H14.5004V19.5C14.5004 17.83 13.6704 17 12.0004 17Z" stroke="#CF0032" stroke-opacity="0.4" stroke-width="1.5" stroke-linecap="round" stroke-linejoin="round"/>
</svg>
