<svg width="24" height="24" viewBox="0 0 24 24" fill="none" xmlns="http://www.w3.org/2000/svg">
<path d="M16.9704 14.44C18.3404 14.67 19.8504 14.43 20.9104 13.72C22.3204 12.78 22.3204 11.24 20.9104 10.3C19.8404 9.59001 18.3104 9.35 16.9404 9.59M7.00043 14.44C5.63043 14.67 4.12043 14.43 3.06043 13.72C1.65043 12.78 1.65043 11.24 3.06043 10.3C4.13043 9.59001 5.66043 9.35 7.03043 9.59M18.0004 7.16C17.9404 7.15 17.8704 7.15 17.8104 7.16C16.4304 7.11 15.3304 5.98 15.3304 4.58C15.3304 3.15 16.4804 2 17.9104 2C19.3404 2 20.4904 3.16 20.4904 4.58C20.4804 5.98 19.3804 7.11 18.0004 7.16ZM5.97043 7.16C6.03043 7.15 6.10043 7.15 6.16043 7.16C7.54043 7.11 8.64043 5.98 8.64043 4.58C8.64043 3.15 7.49043 2 6.06043 2C4.63043 2 3.48043 3.16 3.48043 4.58C3.49043 5.98 4.59043 7.11 5.97043 7.16ZM12.0004 14.63C11.9404 14.62 11.8704 14.62 11.8104 14.63C10.4304 14.58 9.33043 13.45 9.33043 12.05C9.33043 10.62 10.4804 9.47 11.9104 9.47C13.3404 9.47 14.4904 10.63 14.4904 12.05C14.4804 13.45 13.3804 14.59 12.0004 14.63ZM9.09043 17.78C7.68043 18.72 7.68043 20.26 9.09043 21.2C10.6904 22.27 13.3104 22.27 14.9104 21.2C16.3204 20.26 16.3204 18.72 14.9104 17.78C13.3204 16.72 10.6904 16.72 9.09043 17.78Z" stroke="#CF0032" stroke-width="1.5" stroke-linecap="round" stroke-linejoin="round"/>
</svg>
