<svg width="24" height="24" viewBox="0 0 24 24" fill="none" xmlns="http://www.w3.org/2000/svg">
<path d="M2.5 12.4101V7.8401C2.5 6.6501 3.23 5.59006 4.34 5.17006L12.28 2.17006C13.52 1.70006 14.85 2.62009 14.85 3.95009V7.75008M7 12.0001H14M18.04 13.55C17.62 13.96 17.38 14.5501 17.44 15.1801C17.53 16.2601 18.52 17.05 19.6 17.05H21.5V18.2401C21.5 20.3101 19.81 22.0001 17.74 22.0001H6.26C4.19 22.0001 2.5 20.3101 2.5 18.2401V11.5101C2.5 9.44007 4.19 7.75006 6.26 7.75006H17.74C19.81 7.75006 21.5 9.44007 21.5 11.5101V12.9501H19.48C18.92 12.9501 18.41 13.17 18.04 13.55ZM22.5588 13.9702V16.0303C22.5588 16.5803 22.1188 17.0302 21.5588 17.0502H19.5988C18.5188 17.0502 17.5288 16.2602 17.4388 15.1802C17.3788 14.5502 17.6188 13.9602 18.0388 13.5502C18.4088 13.1702 18.9188 12.9503 19.4788 12.9503H21.5588C22.1188 12.9703 22.5588 13.4202 22.5588 13.9702Z" stroke="#CF0032" stroke-width="1.5" stroke-linecap="round" stroke-linejoin="round"/>
</svg>
