<svg width="40" height="40" viewBox="0 0 40 40" fill="none" xmlns="http://www.w3.org/2000/svg">
<path d="M34.9168 11.2335C34.9168 5.6168 33.5168 4.2168 27.9002 4.2168H10.3502C4.7335 4.2168 3.3335 5.6168 3.3335 11.2335V21.2335C3.3335 26.8501 4.7335 28.2501 10.3502 28.2501H16.6668V35.7833L11.2335 35.7834M3.3335 21.5833H16.6668M28.741 30.4167H28.756M36.6669 21.3334V30.85C36.6669 34.8 35.6835 35.7834 31.7335 35.7834H25.8169C21.8669 35.7834 20.8835 34.8 20.8835 30.85V21.3334C20.8835 17.3834 21.8669 16.4 25.8169 16.4H31.7335C35.6835 16.4 36.6669 17.3834 36.6669 21.3334Z" stroke="#0F0F0F" stroke-width="3" stroke-linecap="round" stroke-linejoin="round"/>
</svg>
