<svg width="28" height="28" viewBox="0 0 28 28" fill="none" xmlns="http://www.w3.org/2000/svg">
<g clip-path="url(#clip0_65_3114)">
<path d="M14.0002 28C21.7322 28 28.0002 21.732 28.0002 14C28.0002 6.26801 21.7322 0 14.0002 0C6.26826 0 0.000244141 6.26801 0.000244141 14C0.000244141 21.732 6.26826 28 14.0002 28Z" fill="url(#paint0_linear_65_3114)"/>
<path fill-rule="evenodd" clip-rule="evenodd" d="M6.33731 13.8522C10.4186 12.0741 13.1401 10.9018 14.5018 10.3354C18.3897 8.71829 19.1976 8.43737 19.7242 8.4281C19.84 8.42606 20.099 8.45476 20.2667 8.59087C20.4083 8.70579 20.4473 8.86104 20.4659 8.97001C20.4846 9.07897 20.5078 9.32719 20.4894 9.52114C20.2787 11.7349 19.367 17.107 18.9032 19.5864C18.707 20.6356 18.3206 20.9873 17.9465 21.0218C17.1334 21.0966 16.5161 20.4845 15.7287 19.9683C14.4965 19.1606 13.8004 18.6578 12.6043 17.8696C11.2221 16.9587 12.1181 16.4581 12.9059 15.6399C13.112 15.4258 16.6941 12.1676 16.7635 11.872C16.7721 11.835 16.7802 11.6973 16.6983 11.6245C16.6165 11.5517 16.4957 11.5766 16.4085 11.5964C16.2849 11.6245 14.3165 12.9255 10.5032 15.4996C9.94445 15.8832 9.43837 16.0702 8.98494 16.0604C8.48507 16.0496 7.52351 15.7777 6.8087 15.5454C5.93194 15.2604 5.23512 15.1097 5.2958 14.6257C5.3274 14.3736 5.67457 14.1158 6.33731 13.8522Z" fill="white"/>
</g>
<defs>
<linearGradient id="paint0_linear_65_3114" x1="1400" y1="0" x2="1400" y2="2779.23" gradientUnits="userSpaceOnUse">
<stop stop-color="#2AABEE"/>
<stop offset="1" stop-color="#229ED9"/>
</linearGradient>
<clipPath id="clip0_65_3114">
<rect width="28" height="28" fill="white" transform="translate(0.000244141)"/>
</clipPath>
</defs>
</svg>
