<svg width="40" height="41" viewBox="0 0 40 41" fill="none" xmlns="http://www.w3.org/2000/svg">
<path d="M13.9663 20.5001L17.983 24.5335L26.033 16.4668M17.9163 4.58345C19.0663 3.60011 20.9496 3.60011 22.1163 4.58345L24.7496 6.85011C25.2496 7.28345 26.183 7.63345 26.8496 7.63345H29.683C31.4496 7.63345 32.8996 9.08345 32.8996 10.8501V13.6834C32.8996 14.3334 33.2496 15.2834 33.683 15.7834L35.9496 18.4168C36.933 19.5668 36.933 21.4501 35.9496 22.6168L33.683 25.2501C33.2496 25.7501 32.8996 26.6834 32.8996 27.3501V30.1834C32.8996 31.9501 31.4496 33.4001 29.683 33.4001H26.8496C26.1996 33.4001 25.2496 33.7501 24.7496 34.1834L22.1163 36.4501C20.9663 37.4334 19.083 37.4334 17.9163 36.4501L15.283 34.1834C14.783 33.7501 13.8496 33.4001 13.183 33.4001H10.2996C8.53297 33.4001 7.08297 31.9501 7.08297 30.1834V27.3334C7.08297 26.6834 6.73297 25.7501 6.31631 25.2501L4.06631 22.6001C3.09964 21.4501 3.09964 19.5834 4.06631 18.4334L6.31631 15.7834C6.73297 15.2834 7.08297 14.3501 7.08297 13.7001V10.8334C7.08297 9.06678 8.53297 7.61678 10.2996 7.61678H13.183C13.833 7.61678 14.783 7.26678 15.283 6.83345L17.9163 4.58345Z" stroke="#0F0F0F" stroke-width="2.5" stroke-linecap="round" stroke-linejoin="round"/>
</svg>
