<svg width="41" height="40" viewBox="0 0 41 40" fill="none" xmlns="http://www.w3.org/2000/svg">
<path d="M25.3327 37.9166H15.3327C6.28268 37.9166 2.41602 34.05 2.41602 25V15C2.41602 5.94998 6.28268 2.08331 15.3327 2.08331H25.3327C34.3827 2.08331 38.2493 5.94998 38.2493 15V25C38.2493 34.05 34.3827 37.9166 25.3327 37.9166ZM15.3327 4.58331C7.64935 4.58331 4.91602 7.31665 4.91602 15V25C4.91602 32.6833 7.64935 35.4166 15.3327 35.4166H25.3327C33.016 35.4166 35.7493 32.6833 35.7493 25V15C35.7493 7.31665 33.016 4.58331 25.3327 4.58331H15.3327Z" fill="#272727"/>
<path d="M18.2658 27.2833C17.5658 27.2833 16.9158 27.1166 16.3324 26.7833C14.9991 26.0166 14.2324 24.45 14.2324 22.4666V17.5333C14.2324 15.5666 14.9991 13.9833 16.3324 13.2166C17.6658 12.45 19.3991 12.5666 21.1158 13.5666L25.3991 16.0333C27.0991 17.0166 28.0824 18.4666 28.0824 20C28.0824 21.5333 27.0991 22.9833 25.3991 23.9666L21.1158 26.4333C20.1491 27 19.1658 27.2833 18.2658 27.2833ZM18.2824 15.2166C18.0158 15.2166 17.7824 15.2666 17.5991 15.3833C17.0658 15.7 16.7491 16.4833 16.7491 17.5333V22.4666C16.7491 23.5166 17.0491 24.3 17.5991 24.6166C18.1324 24.9333 18.9658 24.8 19.8824 24.2666L24.1658 21.8C25.0824 21.2666 25.5991 20.6166 25.5991 20C25.5991 19.3833 25.0824 18.7166 24.1658 18.2L19.8824 15.7333C19.2824 15.3833 18.7324 15.2166 18.2824 15.2166Z" fill="#272727"/>
</svg>
