<svg width="28" height="28" viewBox="0 0 28 28" fill="none" xmlns="http://www.w3.org/2000/svg">
<path d="M0 28L1.96817 20.8098C0.753667 18.7052 0.1155 16.3193 0.116667 13.8728C0.120167 6.22417 6.34434 0 13.9918 0C17.703 0.00116667 21.1867 1.44667 23.807 4.06933C26.4262 6.692 27.8682 10.178 27.867 13.8857C27.8635 21.5355 21.6393 27.7597 13.9918 27.7597C11.6702 27.7585 9.38234 27.1763 7.35584 26.0703L0 28ZM7.6965 23.5585C9.65184 24.7193 11.5185 25.4147 13.9872 25.4158C20.3432 25.4158 25.5208 20.2428 25.5243 13.8833C25.5267 7.511 20.3735 2.345 13.9965 2.34267C7.63584 2.34267 2.46167 7.51567 2.45933 13.874C2.45817 16.4698 3.21883 18.4135 4.49634 20.447L3.33083 24.703L7.6965 23.5585ZM20.9813 17.1838C20.895 17.0392 20.664 16.9528 20.3163 16.779C19.9698 16.6052 18.2653 15.7663 17.9468 15.6508C17.6295 15.5353 17.3985 15.477 17.1663 15.8247C16.9353 16.1712 16.2703 16.9528 16.0685 17.1838C15.8667 17.4148 15.6637 17.444 15.3172 17.2702C14.9707 17.0963 13.853 16.7312 12.5288 15.5493C11.4987 14.63 10.8022 13.4948 10.6003 13.1472C10.3985 12.8007 10.5793 12.6128 10.752 12.4402C10.9083 12.285 11.0985 12.0353 11.2723 11.8323C11.4485 11.6317 11.5057 11.487 11.6223 11.2548C11.7378 11.0238 11.6807 10.8208 11.5932 10.647C11.5057 10.4743 10.8127 8.7675 10.5245 8.07333C10.2422 7.39783 9.95634 7.48883 9.744 7.47833L9.079 7.46667C8.848 7.46667 8.47234 7.553 8.155 7.90067C7.83767 8.24833 6.94167 9.086 6.94167 10.7928C6.94167 12.4997 8.18417 14.1482 8.35684 14.3792C8.53067 14.6102 10.801 18.1125 14.2788 19.614C15.106 19.971 15.7523 20.1845 16.2552 20.3443C17.0858 20.608 17.8418 20.5707 18.4392 20.482C19.1053 20.3828 20.4902 19.6432 20.7795 18.8335C21.0688 18.0227 21.0688 17.3285 20.9813 17.1838Z" fill="#25D366"/>
</svg>
